<svg width="30" height="27" viewBox="0 0 30 27" fill="none" xmlns="http://www.w3.org/2000/svg">
<path d="M9.90599 1.44428C6.06099 0.483285 2.81699 1.45828 0.972993 4.22528C0.935518 4.28482 0.886505 4.33624 0.828842 4.37653C0.771178 4.41682 0.706033 4.44516 0.637245 4.45988C0.568457 4.47459 0.497419 4.47539 0.428318 4.46222C0.359218 4.44904 0.293454 4.42217 0.234904 4.38318C0.176353 4.34419 0.126201 4.29388 0.0874032 4.2352C0.0486056 4.17652 0.0219479 4.11067 0.00900179 4.04153C-0.00394437 3.97238 -0.00291703 3.90135 0.0120233 3.83261C0.0269636 3.76387 0.0555145 3.69882 0.0959929 3.64128C2.25099 0.408285 6.00699 -0.616715 10.162 0.421285C10.2292 0.438094 10.2924 0.467969 10.348 0.509204C10.4036 0.550439 10.4506 0.602226 10.4862 0.661609C10.5218 0.720992 10.5454 0.786808 10.5555 0.855299C10.5657 0.923789 10.5623 0.993614 10.5455 1.06078C10.5287 1.12796 10.4988 1.19116 10.4576 1.24678C10.4163 1.30241 10.3646 1.34937 10.3052 1.38498C10.2458 1.42059 10.18 1.44416 10.1115 1.45433C10.043 1.46451 9.97316 1.46109 9.90599 1.44428ZM18.832 5.56728C16.404 5.99028 14.534 8.80328 14.534 8.80328C14.534 8.80328 12.674 5.98028 10.236 5.56728C4.22899 4.53328 1.74999 9.70828 2.74899 13.5653C4.14599 18.9253 10.541 24.0613 13.282 26.0583C13.6451 26.325 14.0839 26.4688 14.5345 26.4688C14.985 26.4688 15.4238 26.325 15.787 26.0583C18.527 24.0613 24.922 18.9243 26.319 13.5653C27.319 9.71828 24.839 4.53428 18.832 5.56728Z" fill="#F92F60"/>
<path d="M3.45103 5.21028C3.89603 4.53828 4.45903 4.00028 5.17503 3.67528C5.88803 3.35128 6.79003 3.22028 7.94703 3.42528C8.07512 3.4429 8.20505 3.41022 8.30955 3.3341C8.41406 3.25797 8.48502 3.14433 8.50753 3.01701C8.53004 2.8897 8.50236 2.75861 8.4303 2.65126C8.35824 2.54392 8.24739 2.46866 8.12103 2.44128C6.79803 2.20628 5.68603 2.34428 4.76103 2.76528C3.83903 3.18528 3.14203 3.86628 2.61703 4.65728C2.58072 4.71205 2.55555 4.77342 2.54296 4.83791C2.53037 4.9024 2.53061 4.96874 2.54365 5.03313C2.5567 5.09753 2.5823 5.15873 2.619 5.21323C2.6557 5.26773 2.70277 5.31447 2.75753 5.35078C2.81229 5.3871 2.87367 5.41226 2.93816 5.42485C3.00265 5.43744 3.06898 5.43721 3.13338 5.42416C3.19778 5.41112 3.25898 5.38551 3.31348 5.34882C3.36798 5.31212 3.41472 5.26505 3.45103 5.21028ZM19.162 1.44428C23.008 0.483285 26.252 1.45828 28.096 4.22528C28.1751 4.33768 28.295 4.41474 28.4301 4.44003C28.5651 4.46532 28.7047 4.43685 28.8191 4.36068C28.9335 4.28451 29.0136 4.16666 29.0424 4.03228C29.0711 3.89789 29.0462 3.75759 28.973 3.64128C26.817 0.408285 23.061 -0.616715 18.906 0.421285C18.7704 0.455232 18.6538 0.54168 18.5818 0.661609C18.5099 0.781539 18.4886 0.925126 18.5225 1.06078C18.5565 1.19644 18.6429 1.31306 18.7629 1.38498C18.8828 1.4569 19.0264 1.47823 19.162 1.44428Z" fill="#F92F60"/>
<path d="M25.618 5.2103C25.172 4.5383 24.608 4.0003 23.893 3.6753C23.18 3.3513 22.278 3.2203 21.121 3.4253C21.0553 3.43954 20.9873 3.44037 20.9212 3.42774C20.8552 3.4151 20.7923 3.38926 20.7365 3.35177C20.6806 3.31427 20.6329 3.26589 20.5962 3.20952C20.5595 3.15315 20.5345 3.08995 20.5228 3.0237C20.5111 2.95745 20.5128 2.88953 20.528 2.82398C20.5432 2.75844 20.5714 2.69663 20.611 2.64225C20.6506 2.58787 20.7008 2.54205 20.7585 2.50752C20.8162 2.47299 20.8804 2.45047 20.947 2.4413C22.27 2.2063 23.383 2.3443 24.307 2.7653C25.229 3.1853 25.927 3.8663 26.451 4.6573C26.4873 4.71206 26.5125 4.77344 26.5251 4.83793C26.5377 4.90241 26.5374 4.96875 26.5244 5.03315C26.5113 5.09755 26.4857 5.15874 26.449 5.21325C26.4123 5.26775 26.3653 5.31449 26.3105 5.3508C26.2557 5.38711 26.1944 5.41228 26.1299 5.42487C26.0654 5.43746 25.9991 5.43723 25.9347 5.42418C25.8703 5.41113 25.8091 5.38553 25.7546 5.34883C25.7001 5.31213 25.6543 5.26506 25.618 5.2103Z" fill="#F92F60"/>
</svg>
