<svg width="177" height="43" viewBox="0 0 177 43" fill="none" xmlns="http://www.w3.org/2000/svg">
<path d="M15.839 42.0625H16.4581C19.059 42.0599 21.5525 41.133 23.3916 39.4853C25.2307 37.8376 26.2652 35.6036 26.2681 33.2734V28.7412C28.1514 27.3866 29.6708 25.6703 30.7143 23.719C31.7578 21.7677 32.2986 19.6312 32.2967 17.4675C32.2967 9.49015 25.0527 3 16.1486 3C7.24448 3 0.000431885 9.49015 0.000431885 17.4675C-0.0014002 19.6312 0.539403 21.7677 1.58289 23.719C2.62637 25.6703 4.14587 27.3867 6.02913 28.7412V33.2734C6.03204 35.6036 7.06651 37.8376 8.90559 39.4853C10.7447 41.133 13.2382 42.0599 15.839 42.0625ZM16.4581 39.4583H15.839C14.4562 39.4568 13.1057 39.0837 11.9621 38.3874C10.8184 37.691 9.93405 36.7034 9.42338 35.5521H22.8739C22.3632 36.7034 21.4789 37.691 20.3352 38.3874C19.1915 39.0837 17.841 39.4568 16.4581 39.4583ZM23.3615 32.9479H8.93579V29.6927H23.3615V32.9479ZM2.9071 17.4675C2.9071 10.9264 8.84723 5.60417 16.1486 5.60417C23.4499 5.60417 29.3901 10.9264 29.3901 17.4675C29.3856 19.3343 28.8916 21.174 27.9478 22.8384C27.0041 24.5027 25.6369 25.945 23.9567 27.049L23.8967 27.0885H8.40051L8.34011 27.049C6.65997 25.9449 5.29292 24.5026 4.3492 22.8383C3.40548 21.174 2.9115 19.3343 2.9071 17.4675Z" fill="#7B39D1"/>
<path d="M19.9975 11.6973C18.4637 11.6973 17.1024 12.2393 16.1802 13.1711C15.2579 12.2393 13.8966 11.6973 12.3628 11.6973C11.0269 11.6987 9.74618 12.1745 8.80156 13.0203C7.85693 13.8661 7.32553 15.0128 7.32391 16.2089C7.32391 21.1539 15.4022 25.105 15.7457 25.2711C15.8793 25.3354 16.0285 25.3691 16.1802 25.3691C16.3318 25.3691 16.4811 25.3354 16.6146 25.2711C16.9581 25.105 25.0364 21.1539 25.0364 16.2089C25.0348 15.0128 24.5034 13.8661 23.5588 13.0203C22.6141 12.1745 21.3334 11.6987 19.9975 11.6973ZM19.5784 21.4287C18.5151 22.2365 17.3784 22.9637 16.1802 23.6024C14.9819 22.9637 13.8453 22.2365 12.782 21.4287C11.1275 20.1579 9.15624 18.22 9.15624 16.2089C9.15624 15.4474 9.49407 14.7172 10.0954 14.1788C10.6968 13.6403 11.5124 13.3379 12.3628 13.3379C13.7218 13.3379 14.8594 13.9804 15.3319 15.0153C15.4007 15.1662 15.5181 15.2953 15.6692 15.3862C15.8203 15.4771 15.9982 15.5256 16.1802 15.5256C16.3622 15.5256 16.54 15.4771 16.6911 15.3862C16.8422 15.2953 16.9596 15.1662 17.0284 15.0153C17.501 13.9804 18.6385 13.3379 19.9975 13.3379C20.8479 13.3379 21.6635 13.6403 22.2649 14.1788C22.8662 14.7172 23.2041 15.4474 23.2041 16.2089C23.2041 18.22 21.2328 20.1579 19.5784 21.4287Z" fill="#7B39D1"/>
<path d="M63.5155 8.0625V13.75H67.453V16.625H63.5155V22.25H60.0468V8.0625H63.5155ZM63.5155 23.4688V30.875H48.5155V33.2188H64.3905V35.9688H45.078V28.3438H60.0468V26.1562H45.0468V23.4688H63.5155ZM49.0468 9C53.3593 9 56.5155 11.5938 56.5468 15.3438C56.5155 19.0312 53.3593 21.6562 49.0468 21.6562C44.7343 21.6562 41.5155 19.0312 41.5468 15.3438C41.5155 11.5938 44.7343 9 49.0468 9ZM49.0468 11.8125C46.6718 11.8125 44.9218 13.1875 44.953 15.3438C44.9218 17.4688 46.6718 18.9062 49.0468 18.9062C51.4218 18.9062 53.1718 17.4688 53.1718 15.3438C53.1718 13.1875 51.4218 11.8125 49.0468 11.8125ZM91.313 10.6562V13.375C91.2818 16.875 91.2818 20.8125 90.188 26.7188L86.688 26.3438C87.7818 20.8438 87.7818 16.8281 87.813 13.4375H70.938V10.6562H91.313ZM94.0005 29.8125V32.6562H68.2505V29.8125H77.7505V20H81.188V29.8125H94.0005ZM118.798 8.09375V23.75H115.298V8.09375H118.798ZM105.798 11.8125C105.798 15.375 108.173 18.75 112.642 20.0312L110.986 22.8125C107.689 21.7812 105.314 19.6875 104.048 17C102.751 19.9062 100.345 22.2031 96.9543 23.2812L95.2668 20.5312C99.8293 19.125 102.204 15.5312 102.204 11.8125V9.09375H105.798V11.8125ZM118.954 25.1562V27.9062H115.392V33.1562H119.204V35.9688H99.4543V33.1562H103.298V27.9062H99.7043V25.1562H118.954ZM106.736 33.1562H111.954V27.9062H106.736V33.1562ZM132.627 26.375C132.596 28.7656 133.689 31.2344 136.127 32.8125C138.564 31.1094 139.658 28.5 139.689 26.375V25.0625H143.096V26.375C143.096 29.3125 144.814 32.1562 148.596 33.3438L146.846 35.9375C144.111 34.9688 142.299 33.1562 141.346 30.875C140.408 33.125 138.721 35.125 136.127 36.1562C133.502 35.1719 131.83 33.25 130.908 30.9688C129.908 33.1562 128.111 34.9531 125.502 35.9375L123.814 33.3438C127.471 32.0938 129.221 29.1562 129.252 26.375V25.0625H132.627V26.375ZM130.127 9.5625C133.736 9.5625 136.642 11.6875 137.377 14.8125H142.471V8.0625H145.939V24H142.471V17.625H137.408C136.736 20.8438 133.799 23 130.127 23C125.846 23 122.658 20.2188 122.658 16.2812C122.658 12.375 125.846 9.5625 130.127 9.5625ZM130.127 12.4688C127.752 12.4688 126.002 13.9688 126.002 16.2812C126.002 18.5625 127.752 20.125 130.127 20.125C132.439 20.125 134.189 18.5625 134.189 16.2812C134.189 13.9688 132.439 12.4688 130.127 12.4688ZM159.643 12.125C159.612 15.9688 161.862 19.4688 166.299 20.875L164.424 23.5938C161.346 22.5156 159.19 20.4688 157.987 17.7812C156.737 20.8594 154.377 23.2812 150.956 24.4688L149.112 21.6562C153.799 20.125 156.143 16.3438 156.143 12.2812V9.59375H159.643V12.125ZM172.956 8.0625V24.6875H169.487V16.375H163.862V13.5312H169.487V8.0625H172.956ZM163.393 25.4375C169.393 25.4375 173.049 27.4375 173.049 30.875C173.049 34.3125 169.393 36.2812 163.393 36.2812C157.424 36.2812 153.768 34.3125 153.799 30.875C153.768 27.4375 157.424 25.4375 163.393 25.4375ZM163.393 28.125C159.456 28.125 157.237 29.0938 157.237 30.875C157.237 32.5938 159.456 33.5625 163.393 33.5625C167.331 33.5625 169.581 32.5938 169.581 30.875C169.581 29.0938 167.331 28.125 163.393 28.125Z" fill="#7B39D1"/>
</svg>
