<svg width="28" height="27" viewBox="0 0 28 27" fill="none" xmlns="http://www.w3.org/2000/svg">
<path d="M18.5048 26.5007H7.0848C2.3348 26.5007 0.00480388 22.6417 0.0548039 19.5317C0.0548039 16.1257 4.8978 3.65667 4.8978 3.65667C5.7108 1.62567 6.4128 -0.0383281 8.8048 0.000671867C10.6478 0.000671867 14.1948 1.50067 14.1948 4.50067C14.1948 6.12567 13.0548 6.61067 13.0548 6.61067C13.0548 7.57867 12.2578 8.50067 11.4138 8.50067H7.6798C7.6798 8.50067 10.8168 14.7987 11.0858 15.2977C11.3538 15.7967 11.6168 15.2977 11.6168 15.2977C12.6798 12.0627 16.2418 9.52567 19.3978 9.52567C23.8868 9.52467 27.9918 13.5467 27.9918 17.2997C27.9918 22.0627 24.8348 26.5007 18.5048 26.5007Z" fill="#FFD7C2"/>
<path d="M8.24182 2.9687L9.53882 4.6177H11.6328C11.1628 3.9777 9.51682 2.7437 8.24182 2.9687ZM13.0678 6.6037C13.0632 6.60582 13.0585 6.60782 13.0538 6.6097C13.0538 7.5787 12.2578 8.4997 11.4138 8.4997H7.82382L8.76282 10.6737C5.95382 10.4397 4.99182 7.5237 4.99182 7.5237H5.80582L5.83882 7.5397H11.1488C11.6788 7.5397 12.8358 7.0627 12.0078 5.5317C12.2978 5.5317 12.9058 5.9707 13.0678 6.6037ZM12.6428 15.2337C12.4696 14.9445 12.2029 14.7229 11.8868 14.6057C11.7846 14.8314 11.6945 15.0624 11.6168 15.2977C11.6168 15.2977 11.5228 15.4757 11.3898 15.5127C11.4709 15.5169 11.5497 15.541 11.6193 15.5829C11.6889 15.6247 11.7471 15.683 11.7888 15.7527L14.7518 20.6347C14.7859 20.6908 14.8307 20.7397 14.8837 20.7785C14.9366 20.8174 14.9967 20.8454 15.0605 20.861C15.1243 20.8766 15.1906 20.8795 15.2555 20.8695C15.3204 20.8595 15.3827 20.8368 15.4388 20.8027C15.495 20.7686 15.5438 20.7238 15.5827 20.6709C15.6215 20.6179 15.6495 20.5578 15.6651 20.494C15.6807 20.4302 15.6836 20.364 15.6736 20.2991C15.6636 20.2341 15.6409 20.1718 15.6068 20.1157L12.6428 15.2337ZM10.0838 15.2257C10.2407 14.9669 10.4731 14.7623 10.7498 14.6397C10.9208 14.9797 11.0418 15.2157 11.0858 15.2977C11.1608 15.4377 11.2358 15.4987 11.3058 15.5147C11.2302 15.5228 11.1576 15.5483 11.0934 15.589C11.0292 15.6298 10.9753 15.6848 10.9358 15.7497L8.04282 20.4497C7.97333 20.5627 7.86181 20.6434 7.73279 20.6742C7.60376 20.7049 7.4678 20.6832 7.35482 20.6137C7.24184 20.5442 7.16109 20.4327 7.13033 20.3037C7.09958 20.1746 7.12134 20.0387 7.19082 19.9257L10.0838 15.2257Z" fill="#F1B99B"/>
</svg>
