<svg width="29" height="27" viewBox="0 0 29 27" fill="none" xmlns="http://www.w3.org/2000/svg">
<path d="M9.1625 10.6719L13.5083 3.86795C13.625 3.68128 13.7708 3.54576 13.9458 3.46139C14.1208 3.37701 14.3056 3.3352 14.5 3.33595C14.6944 3.33595 14.8792 3.37813 15.0542 3.46251C15.2292 3.54688 15.375 3.68203 15.4917 3.86795L19.8375 10.6719C19.9542 10.8586 20.0125 11.0546 20.0125 11.2599C20.0125 11.4653 19.9639 11.6519 19.8667 11.8199C19.7694 11.9879 19.6333 12.1235 19.4583 12.2265C19.2833 12.3295 19.0792 12.3807 18.8458 12.3799H10.1542C9.92084 12.3799 9.71667 12.3284 9.54167 12.2254C9.36667 12.1223 9.23056 11.9872 9.13334 11.8199C9.03612 11.6519 8.9875 11.4653 8.9875 11.2599C8.9875 11.0546 9.04584 10.8586 9.1625 10.6719ZM20.9167 24.6999C19.4583 24.6999 18.2186 24.2098 17.1973 23.2294C16.1761 22.249 15.6659 21.0592 15.6667 19.6599C15.6667 18.2599 16.1773 17.0698 17.1985 16.0894C18.2197 15.109 19.4591 14.6192 20.9167 14.6199C22.375 14.6199 23.6148 15.1101 24.636 16.0905C25.6572 17.0709 26.1674 18.2607 26.1667 19.6599C26.1667 21.0599 25.6561 22.2501 24.6348 23.2305C23.6136 24.2109 22.3742 24.7007 20.9167 24.6999ZM4 23.0199V16.2999C4 15.9826 4.112 15.7164 4.336 15.5014C4.56 15.2863 4.83689 15.1792 5.16667 15.1799H12.1667C12.4972 15.1799 12.7745 15.2875 12.9985 15.5025C13.2225 15.7175 13.3341 15.9834 13.3333 16.2999V23.0199C13.3333 23.3373 13.2213 23.6035 12.9973 23.8185C12.7733 24.0335 12.4964 24.1407 12.1667 24.1399H5.16667C4.83612 24.1399 4.55884 24.0324 4.33484 23.8174C4.11084 23.6023 3.99923 23.3365 4 23.0199ZM20.9167 22.4599C21.7333 22.4599 22.4236 22.1893 22.9875 21.6479C23.5514 21.1066 23.8333 20.4439 23.8333 19.6599C23.8333 18.8759 23.5514 18.2133 22.9875 17.6719C22.4236 17.1306 21.7333 16.8599 20.9167 16.8599C20.1 16.8599 19.4097 17.1306 18.8458 17.6719C18.2819 18.2133 18 18.8759 18 19.6599C18 20.4439 18.2819 21.1066 18.8458 21.6479C19.4097 22.1893 20.1 22.4599 20.9167 22.4599ZM6.33334 21.8999H11V17.4199H6.33334V21.8999ZM12.225 10.1399H16.775L14.5 6.61195L12.225 10.1399Z" fill="#7B39D1"/>
</svg>
