<svg width="17" height="11" viewBox="0 0 17 11" fill="none" xmlns="http://www.w3.org/2000/svg">
<path d="M2.42249 10.2504C2.00582 10.2504 1.65149 10.1044 1.35949 9.81237C1.06749 9.52037 0.921821 9.16637 0.922488 8.75037C0.922488 8.3337 1.06849 7.97937 1.36049 7.68737C1.65249 7.39537 2.00649 7.2497 2.42249 7.25037H15.4225C15.8392 7.25037 16.1935 7.39637 16.4855 7.68837C16.7775 7.98037 16.9232 8.33437 16.9225 8.75037C16.9225 9.16704 16.7765 9.52137 16.4845 9.81337C16.1925 10.1054 15.8385 10.251 15.4225 10.2504H2.42249ZM2.42249 3.25037C2.00582 3.25037 1.65149 3.10437 1.35949 2.81237C1.06749 2.52037 0.921821 2.16637 0.922488 1.75037C0.922488 1.3337 1.06849 0.979368 1.36049 0.687368C1.65249 0.395368 2.00649 0.249702 2.42249 0.250368H15.4225C15.8392 0.250368 16.1935 0.396369 16.4855 0.688369C16.7775 0.980369 16.9232 1.33437 16.9225 1.75037C16.9225 2.16704 16.7765 2.52137 16.4845 2.81337C16.1925 3.10537 15.8385 3.25104 15.4225 3.25037H2.42249Z" fill="#333333"/>
</svg>
