<svg width="29" height="26" viewBox="0 0 29 26" fill="none" xmlns="http://www.w3.org/2000/svg">
<path d="M25.9385 22.7195L18.3135 25.3685C15.8915 26.2905 13.4855 25.2285 12.8915 22.5875C12.1035 20.3025 13.1075 17.7445 15.3915 16.9565L23.0175 14.3075C25.3015 13.5195 27.8955 14.7685 28.6835 17.0535C29.4635 19.4375 28.2235 21.9315 25.9385 22.7195Z" fill="#F1B99B"/>
<path d="M24.8605 2.11854C23.8775 2.11854 22.5945 2.32154 21.5795 2.11854C20.8465 1.97154 19.3445 0.805542 17.5165 0.805542C15.2575 0.805542 14.5325 2.52554 11.4545 2.38454C9.99948 2.31754 8.02648 2.75954 6.87548 4.13454C5.93548 5.25754 4.07748 5.46154 3.03248 6.07154C1.73248 6.77154 0.938477 8.42154 0.938477 9.92154V16.6025C0.938477 19.8845 1.71948 21.5245 4.53248 21.8215C6.86448 22.0675 7.43848 20.4275 7.93848 20.2275C8.09448 21.2275 9.50148 22.8215 11.0015 22.8215C13.2355 22.8215 13.9045 22.1905 14.7045 21.2905C15.4225 22.9005 16.7795 23.7585 18.0795 23.7585C20.7385 23.7585 21.1885 22.6965 21.9855 21.2905C22.7855 22.1905 23.9455 22.7435 25.3455 22.7435C27.3295 22.7435 28.9225 20.8995 28.9225 18.3995L28.7385 6.52154C28.7385 4.02154 27.3605 2.11854 24.8605 2.11854Z" fill="#FFD7C2"/>
<path d="M3.15047 21.2915C3.28047 21.4185 3.41247 21.5345 3.54547 21.6395C1.69747 21.1215 1.04547 19.7215 0.951471 17.2855C0.933991 14.7099 0.934658 12.1341 0.953471 9.55851C1.03275 8.61397 1.38739 7.71345 1.97347 6.96851C1.93747 10.8765 1.90947 17.6855 1.99347 19.1365C2.03347 19.8405 2.48847 20.6445 3.15047 21.2925V21.2915ZM9.92347 21.9835C10.1805 22.3035 10.4585 22.5835 10.7335 22.8045C9.33747 22.6325 8.08547 21.1675 7.93847 20.2275C7.92789 20.232 7.91755 20.237 7.90747 20.2425C7.81474 19.9015 7.76634 19.5499 7.76347 19.1965C7.76347 18.7115 7.76047 18.0345 7.75647 17.2445C7.74647 15.1975 7.73347 12.3975 7.76347 10.2525C7.76533 10.1199 7.81979 9.99346 7.91487 9.901C8.00995 9.80855 8.13786 9.75765 8.27047 9.75951C8.40308 9.76136 8.52952 9.81582 8.62197 9.9109C8.71443 10.006 8.76533 10.1339 8.76347 10.2665C8.73347 12.4015 8.74647 15.1805 8.75647 17.2265C8.76047 18.0205 8.76347 18.7035 8.76347 19.1965C8.76347 20.0805 9.24047 21.1325 9.92347 21.9835ZM17.3655 23.6735C17.1213 23.4583 16.8964 23.222 16.6935 22.9675C16.0105 22.1175 15.5335 21.0645 15.5335 20.1805C15.5335 19.7335 15.5315 18.9445 15.5285 17.9675C15.5185 15.0965 15.5025 10.6025 15.5335 8.39051C15.5344 8.32484 15.5224 8.25965 15.4981 8.19863C15.4738 8.13762 15.4378 8.08198 15.392 8.0349C15.3462 7.98782 15.2916 7.95022 15.2313 7.92424C15.171 7.89827 15.1061 7.88443 15.0405 7.88351C14.9748 7.88259 14.9096 7.89461 14.8486 7.91889C14.7876 7.94317 14.7319 7.97922 14.6849 8.025C14.6378 8.07078 14.6002 8.12539 14.5742 8.1857C14.5482 8.24601 14.5344 8.31084 14.5335 8.37651C14.5035 10.5985 14.5185 15.1155 14.5275 17.9855C14.5315 18.9565 14.5335 19.7395 14.5335 20.1805C14.5335 20.5505 14.5935 20.9265 14.6965 21.2985L14.7045 21.2905C15.2915 22.6055 16.3055 23.4205 17.3655 23.6735ZM23.6165 21.9835C23.8045 22.2165 24.0015 22.4285 24.2015 22.6115C23.3562 22.4132 22.5915 21.9618 22.0095 21.3175C21.6735 20.6385 21.4565 19.9045 21.4565 19.1965C21.4565 18.7415 21.4545 17.9915 21.4505 17.0795C21.4405 14.4955 21.4265 10.6055 21.4575 8.40851C21.4593 8.2759 21.5138 8.14946 21.6089 8.057C21.7039 7.96455 21.8319 7.91365 21.9645 7.91551C22.0971 7.91736 22.2235 7.97182 22.316 8.0669C22.4084 8.16198 22.4593 8.2899 22.4575 8.42251C22.4265 10.6095 22.4405 14.4765 22.4505 17.0605C22.4545 17.9785 22.4565 18.7345 22.4565 19.1965C22.4565 20.0805 22.9335 21.1325 23.6165 21.9835Z" fill="#F1B99B"/>
</svg>
