<svg width="28" height="25" viewBox="0 0 28 25" fill="none" xmlns="http://www.w3.org/2000/svg">
<path d="M9.3558 0.402982C4.0808 -0.247018 2.1998 2.40298 1.2938 3.62198C-1.1752 7.26198 0.308803 11.262 2.1058 13.185C2.1058 13.185 12.1998 23.013 12.4808 23.278C12.7618 23.544 13.4268 24.45 15.0278 24.192C16.4258 23.967 16.8248 22.278 16.8248 22.278C16.8248 22.278 17.8568 23.12 19.3408 22.278C20.4968 21.622 20.4498 20.31 20.4498 20.31C20.4498 20.31 21.6878 20.93 23.0128 19.81C24.2048 18.8 23.4658 17.028 23.4658 17.028C23.4658 17.028 24.5358 17.204 25.2938 16.372C26.3188 15.247 25.9658 13.825 25.2938 13.184L17.5748 4.74698L16.9808 1.62198L9.3558 0.402982Z" fill="#FFC83D"/>
<path d="M24.6568 16.84L22.4308 14.583C22.3847 14.5362 22.3297 14.499 22.2692 14.4735C22.2087 14.448 22.1437 14.4346 22.078 14.4342C22.0123 14.4338 21.9472 14.4463 21.8863 14.4711C21.8255 14.4958 21.7701 14.5323 21.7233 14.5785C21.6766 14.6247 21.6394 14.6796 21.6138 14.7401C21.5883 14.8006 21.575 14.8656 21.5745 14.9313C21.5741 14.997 21.5866 15.0621 21.6114 15.123C21.6362 15.1839 21.6727 15.2392 21.7188 15.286L23.4828 17.074C23.4774 17.0586 23.4718 17.0432 23.4658 17.028C23.4658 17.028 24.0478 17.124 24.6568 16.84ZM21.9278 20.397L19.6178 17.834C19.529 17.7355 19.4046 17.6763 19.2721 17.6694C19.1396 17.6626 19.0098 17.7086 18.9113 17.7975C18.8128 17.8863 18.7536 18.0107 18.7467 18.1432C18.7399 18.2757 18.786 18.4055 18.8748 18.504L20.5348 20.345C20.7338 20.421 21.2648 20.576 21.9278 20.397ZM18.5258 22.598L16.7198 20.685C16.6747 20.6373 16.6206 20.5989 16.5607 20.572C16.5008 20.5452 16.4361 20.5304 16.3705 20.5286C16.3048 20.5267 16.2394 20.5378 16.1781 20.5612C16.1167 20.5846 16.0606 20.6199 16.0128 20.665C15.9651 20.7101 15.9267 20.7642 15.8999 20.8241C15.873 20.8841 15.8583 20.9487 15.8564 21.0144C15.8545 21.08 15.8656 21.1454 15.889 21.2067C15.9124 21.2681 15.9477 21.3243 15.9928 21.372L16.8968 22.329C17.0958 22.459 17.6918 22.779 18.5258 22.598ZM16.3528 23.3C15.5938 23.503 14.1858 23.566 13.2158 22.528L12.4398 23.238L12.4808 23.278C12.5108 23.306 12.5428 23.34 12.5808 23.378C12.9088 23.718 13.5908 24.424 15.0278 24.192C15.6498 24.092 16.0738 23.702 16.3528 23.3Z" fill="#D67D00"/>
<path d="M4.32478 1.0599C2.63678 3.2259 0.0377808 8.8349 4.63778 12.6849L3.18978 14.2389L2.10578 13.1839C0.309781 11.2619 -1.17522 7.2619 1.29378 3.6209L1.33378 3.5659C1.85878 2.8599 2.69978 1.7269 4.28378 0.998901L4.32478 1.0589V1.0599Z" fill="#F59F00"/>
<path d="M15.1998 17.935C16.4028 19.325 14.8998 21.097 14.1998 21.841L3.61877 10.831C5.59277 8.82895 6.89677 8.62795 7.77877 9.49695C8.65877 10.366 8.24677 10.981 8.24677 10.981C8.24677 10.981 9.44077 10.303 10.6998 11.544C11.9598 12.785 11.0898 13.731 11.0898 13.731C11.0898 13.731 12.3898 13.497 13.3098 14.528C14.3398 15.685 13.6838 17.028 13.6838 17.028C13.6838 17.028 14.4738 17.096 15.1998 17.935Z" fill="#D67D00"/>
<path d="M10.3878 2.24694C13.6218 0.94994 18.5278 0.293939 20.7778 0.262939C22.3088 0.262939 24.2588 0.63294 26.3248 3.05894C29.6248 6.93394 27.1528 11.3559 25.1998 13.1529V11.7469C25.1998 11.7469 17.6938 5.21094 17.4498 4.98094C16.9998 4.55594 15.1478 4.68494 14.9498 4.74694C14.3458 4.93494 13.2998 5.24694 11.9498 5.74694C10.8518 6.15394 9.98081 5.82494 9.62181 4.98094C9.26181 4.13794 8.78081 2.89094 10.3878 2.24694Z" fill="#FFC83D"/>
<path d="M26.2598 11.9569C25.9453 12.3883 25.5903 12.7888 25.1998 13.1529C22.4398 10.7469 16.8218 5.82791 16.3718 5.40291C15.9218 4.97791 15.3978 4.99691 15.1998 5.05891C14.024 5.42746 12.857 5.82356 11.6998 6.24691C10.6018 6.65391 9.49683 5.82491 9.13683 4.98091C8.80883 4.20991 8.78183 3.10191 10.0088 2.42491L10.6398 2.14791L10.6898 2.12891C8.73683 3.59691 10.4618 5.38991 12.0748 5.18491C12.6418 5.11191 13.5748 4.91891 14.4808 4.68491C14.8408 4.59091 15.1938 4.42591 15.5268 4.27091C16.1518 3.97791 16.7068 3.71891 17.1068 4.02791C18.6068 5.19291 23.0828 8.99591 26.2608 11.9569H26.2598Z" fill="#D67D00"/>
<path d="M6.76981 11.1259C6.59305 10.8969 6.37291 10.7049 6.12196 10.561C5.87101 10.417 5.59417 10.3239 5.30724 10.287C5.0203 10.25 4.7289 10.2699 4.44966 10.3456C4.17043 10.4213 3.90883 10.5512 3.67981 10.7279L1.76181 12.3469C0.878807 13.0819 0.649807 14.4569 1.29481 15.3489C1.87881 16.1569 2.77481 16.4909 3.59781 16.2569C3.23281 17.0919 3.26381 18.1599 3.96481 18.7469C4.61981 19.2939 5.42881 19.6689 6.23981 19.4159C6.16181 19.9509 6.31981 20.5369 6.86981 21.1209C7.38981 21.6719 8.14581 21.9469 8.95681 21.7639C8.84981 22.3359 9.03081 22.9719 9.69981 23.6169C10.5188 24.4069 11.7798 24.4749 12.9648 23.3869L13.7368 22.4869C14.3568 21.7069 15.2148 20.3509 13.9328 19.1989C13.4898 18.8009 12.9808 18.5799 12.4518 18.5789C12.7388 17.8789 12.7338 17.0209 11.9018 16.1989C11.3818 15.6859 10.7448 15.4629 10.0418 15.6309C10.4218 14.8229 10.4128 13.9979 9.65181 13.2459C8.96081 12.5629 8.10881 12.2389 7.00881 12.8559C7.20281 12.2599 7.15681 11.6279 6.76881 11.1249L6.76981 11.1259Z" fill="#FFC83D"/>
<path d="M6.98383 11.4889L2.25983 16.1539C2.67783 16.3399 3.13283 16.3829 3.56983 16.2659L7.03883 12.8399L7.00983 12.8559C7.15983 12.3969 7.16583 11.9159 6.98383 11.4889ZM10.1958 14.0729L4.90983 19.3319C5.33483 19.5029 5.78783 19.5579 6.24183 19.4169L10.0488 15.6309L10.0438 15.6319C10.2888 15.1119 10.3708 14.5839 10.1958 14.0729ZM12.5228 17.1439L7.60483 21.6419C8.00883 21.8189 8.46983 21.8729 8.94983 21.7669L12.4628 18.5539C12.6328 18.1269 12.6928 17.6419 12.5228 17.1439Z" fill="#D67D00"/>
</svg>
